<svg width="168" height="63" viewBox="0 0 168 63" fill="none" xmlns="http://www.w3.org/2000/svg">
<g clip-path="url(#clip0_575_3454)">
<path d="M31.6209 23.5851C30.4563 22.626 28.9233 22.1448 27.0251 22.1448H16.0012V22.4414C16.5802 22.4414 17.0671 22.7644 17.4619 23.4137C17.8567 24.063 18.0573 24.8671 18.0573 25.8295V37.5265C18.0573 38.4724 17.7448 39.2601 17.1165 39.8896C16.5539 40.4367 15.9289 40.7103 15.2347 40.7103V41.0069H26.581V40.7103C25.8375 40.7103 25.1763 40.4268 24.6006 39.8632C23.9723 39.2337 23.6597 38.4526 23.6597 37.5232V32.642H26.2356C28.1831 32.642 29.8115 32.2366 31.1176 31.4259C32.621 30.4833 33.371 29.1418 33.371 27.4049C33.371 25.8163 32.7887 24.5409 31.6242 23.5818L31.6209 23.5851ZM26.8771 31.0073C26.4461 31.6862 25.9033 32.0257 25.2421 32.0257H23.6565V24.3563C23.6565 23.2983 24.2091 22.8567 25.3474 22.8567C26.9001 22.8567 27.6962 24.2014 27.6962 27.0622C27.6962 28.832 27.4232 30.1471 26.8771 31.0073Z" fill="#FFFEFA"/>
<path d="M72.2195 32.2465C72.1208 32.2465 72.0122 32.3718 71.8971 32.619C71.1536 34.3559 70.17 35.9609 68.9495 37.4342C67.3638 39.3359 65.5545 40.2884 64.1498 40.2884C63.6695 40.2884 63.3043 40.1071 63.0477 39.7413C62.7911 39.3754 62.6628 38.9371 62.6628 38.4229V25.6779C62.6628 24.6826 62.9918 23.8784 63.653 23.2654C64.1991 22.7347 64.7913 22.4678 65.4361 22.4678V22.1711H54.0635V22.4678C54.6425 22.4678 55.2017 22.7479 55.7478 23.3115C56.4255 23.9904 56.7643 24.8606 56.7643 25.9218V37.1804C56.7643 38.2911 56.3827 39.1942 55.6228 39.8896C55.2872 40.1895 54.9583 40.4004 54.6326 40.5356H53.8299V41.0102H70.8773C71.2227 40.9278 71.4069 40.7959 71.4234 40.6147L72.3149 32.5465C72.3313 32.3487 72.2984 32.2498 72.2162 32.2498L72.2195 32.2465Z" fill="#FFFEFA"/>
<path d="M80.9504 37.777V25.5988C80.9504 24.6035 81.2235 23.8026 81.7663 23.1896C82.2301 22.6754 82.717 22.4183 83.2269 22.4183V22.1217H72.8708L72.8939 22.4447C73.4564 22.4447 73.9598 22.7018 74.4039 23.2126C74.9006 23.8092 75.1473 24.6101 75.1473 25.6186V37.7802C75.1473 38.7229 74.8578 39.4842 74.2789 40.0643C73.8347 40.496 73.3709 40.7103 72.8906 40.7103V41.0069H83.148V40.7103C82.7697 40.7103 82.3453 40.496 81.8847 40.0643C81.2564 39.4842 80.9439 38.7229 80.9439 37.777H80.9504Z" fill="#FFFEFA"/>
<path d="M111.377 37.777V25.5988C111.377 24.6035 111.65 23.8026 112.193 23.1896C112.657 22.6754 113.144 22.4183 113.654 22.4183V22.1217H103.298L103.321 22.4447C103.883 22.4447 104.386 22.7018 104.831 23.2126C105.327 23.8092 105.574 24.6101 105.574 25.6186V37.7802C105.574 38.7229 105.285 39.4842 104.706 40.0643C104.258 40.496 103.798 40.7103 103.317 40.7103V41.0069H113.575V40.7103C113.196 40.7103 112.772 40.496 112.311 40.0643C111.683 39.4842 111.371 38.7229 111.371 37.777H111.377Z" fill="#FFFEFA"/>
<path d="M51.583 24.8572C49.7144 22.8435 47.3919 21.7723 44.6219 21.6405C41.852 21.512 39.4472 22.359 37.4075 24.1915C35.3679 26.024 34.2889 28.3014 34.1704 31.0271C34.052 33.756 34.9271 36.1257 36.7956 38.1395C38.6642 40.1532 40.9868 41.2244 43.7567 41.3562C46.5267 41.4848 48.9315 40.6344 50.9711 38.8052C53.0107 36.9761 54.0898 34.6953 54.2082 31.9697C54.3299 29.244 53.4516 26.871 51.583 24.8572ZM47.6978 32.3784C46.8951 35.2589 46.0858 37.3287 45.2733 38.5877C44.26 40.1994 43.0823 40.8157 41.7467 40.4433C40.2828 40.0346 39.559 38.8843 39.5689 36.9925C39.559 35.6775 39.9768 33.4956 40.8256 30.4569C41.6546 27.4807 42.431 25.4011 43.1547 24.2211C44.1548 22.6062 45.3621 21.9965 46.7767 22.392C48.0827 22.7578 48.7604 23.8949 48.8097 25.8032C48.8624 27.3357 48.4906 29.5275 47.6978 32.3784Z" fill="#FFFEFA"/>
<path d="M96.1983 22.8797C96.1983 22.8797 96.7839 22.8699 97.1655 22.8732C98.5966 22.8797 102.988 29.5802 102.988 29.5802H103.597L102.324 21.9767L101.955 21.8416C101.86 21.9009 101.531 22.0657 100.965 22.0657C100.561 22.0657 95.945 22.1382 95.945 22.1382L95.9681 22.1481H90.5663L90.5894 22.1382C90.5894 22.1382 85.9739 22.0657 85.5692 22.0657C85.0034 22.0657 84.6744 21.8976 84.579 21.8416L84.2106 21.9767L82.9374 29.5802H83.546C83.546 29.5802 87.9378 22.8797 89.3689 22.8732C89.7505 22.8732 90.336 22.8797 90.336 22.8797L90.3459 22.8501V37.2595C90.3459 38.4526 89.8327 39.3787 88.8096 40.0379C88.0826 40.4861 87.3884 40.707 86.7272 40.707V41.0036H99.5605V40.707C99.0505 40.707 98.4354 40.4762 97.7149 40.0115C96.6984 39.3491 96.1918 38.4823 96.1918 37.4045V22.8501L96.1983 22.8732V22.8797Z" fill="#FFFEFA"/>
<path d="M167.895 32.2465C167.796 32.2465 167.687 32.3717 167.572 32.6189C166.829 34.3558 165.845 35.9609 164.625 37.4342C163.039 39.3359 161.546 40.2884 160.141 40.2884C159.661 40.2884 159.295 40.1071 159.039 39.7412C158.782 39.3754 158.654 38.9371 158.654 38.4229V25.6779C158.654 24.6825 158.983 23.8784 159.644 23.2653C160.19 22.7347 160.782 22.4677 161.427 22.4677V22.1711H150.055V22.4677C150.634 22.4677 151.193 22.7479 151.739 23.3115C152.417 23.9904 152.755 24.8605 152.755 25.9218V37.1804C152.755 38.7657 152.144 40.2554 150.91 40.2785C149.321 40.3114 148.304 37.1441 148.304 37.1441L146.834 32.7475L142.419 20.6781C142.386 20.5463 142.014 20.5627 141.899 20.7275C141.485 21.357 140.909 21.9767 140.166 22.5897C139.373 23.2522 138.587 23.7465 137.81 24.0794C137.547 24.1783 137.471 24.4024 137.586 24.7485L137.932 25.7405L134.441 35.5423C132.813 39.56 131.218 40.463 130.5 40.641V41.02H138.136V40.7366V40.6839H137.636C137.636 40.6839 137.59 40.6839 137.583 40.6839C135.882 40.5388 134.849 38.0406 135.178 36.2015C135.215 36.0071 135.386 35.2919 135.501 34.9095C135.501 34.903 135.501 34.8997 135.501 34.8964L135.849 33.8779H140.83L141.896 36.8805C142.06 37.3122 142.143 37.7242 142.143 38.123C142.143 38.8843 141.896 39.6193 141.37 40.1466C140.958 40.5784 140.59 40.7036 140.31 40.7036V41.0003H166.556C166.901 40.9179 167.082 40.786 167.102 40.6048L167.993 32.5365C168.01 32.3388 167.977 32.2399 167.895 32.2399V32.2465ZM135.984 33.166L138.198 27.0226L138.251 27.161C138.211 27.2797 138.169 27.3983 138.113 27.5203L138.346 27.4214L140.465 33.166H135.988H135.984Z" fill="#FFFEFA"/>
<path d="M130.984 32.1443C130.866 32.1443 130.727 32.2894 130.566 32.5761C129.606 34.3361 128.379 36.017 126.885 37.6253C124.98 39.6885 123.349 40.7201 121.98 40.7201C120.611 40.7201 119.697 40.0708 119.388 38.7657C119.032 37.3122 119.309 34.8931 120.213 31.5082C121.092 28.2256 122.187 25.7339 123.506 24.0234C124.743 22.4348 126.069 21.6372 127.487 21.6372C128.905 21.6372 129.885 22.4842 130.632 24.175C131.204 25.4439 131.523 26.8974 131.593 28.5387C131.593 28.7925 131.668 28.9177 131.82 28.9177C132.004 28.9177 132.135 28.7727 132.214 28.486L134.007 21.7888C134.057 21.6009 133.997 21.5087 133.83 21.5087C132.984 22.0821 132.366 22.3722 131.977 22.3722C131.81 22.3722 131.234 22.1513 130.254 21.713C129.273 21.2747 128.076 21.0538 126.658 21.0538C124.194 21.0538 121.72 21.9075 119.236 23.6147C116.407 25.5428 114.598 27.9883 113.805 30.948C112.969 34.079 113.219 36.5805 114.558 38.4592C115.897 40.3378 118.036 41.2738 120.973 41.2738C122.322 41.2738 123.684 41.0563 125.059 40.6278C126.431 40.1961 127.204 39.9819 127.372 39.9819C127.625 39.9819 127.872 40.1005 128.112 40.3378C128.352 40.5751 128.49 40.6938 128.523 40.6938C128.809 40.6938 128.997 40.5323 129.083 40.2126L131.112 32.6255C131.198 32.3058 131.155 32.1443 130.987 32.1443H130.984Z" fill="#FFFEFA"/>
<path d="M107.558 43.6139H100.82V43.9336H100.834C102.373 43.9303 102.913 46.4186 102.995 47.1965V48.1786C102.929 48.8741 102.732 49.7013 102.357 50.723L99.8631 56.9983L96.5174 47.3151C96.4352 47.0515 96.3924 46.7878 96.3924 46.5208C96.3924 45.8419 96.5832 45.1827 97.0701 44.7048C97.557 44.2236 98.1688 43.927 98.8136 43.927H98.8235V43.6172H88.849V43.6304L75.5914 43.66L75.4796 44.0786C75.5585 44.0786 75.6243 44.0786 75.6408 44.0819C76.1408 44.1346 76.5718 44.3983 76.927 44.9059C77.4238 45.5848 77.5291 46.4549 77.2429 47.5162L74.2328 58.7748C74.1966 58.9033 74.1571 59.0318 74.1143 59.1571H74.1209C73.5518 60.716 72.6339 61.4905 71.8839 61.8729C70.8147 61.3686 69.7094 60.1755 69.8772 57.3674C69.8673 55.5646 69.2686 54.622 68.9823 54.2726C68.2849 53.6069 67.3375 53.3531 66.4887 53.2839C68.3014 52.9708 70.3147 51.9886 70.3147 51.9886C71.6569 51.1119 72.5155 49.9716 72.8906 48.5642C73.2919 47.058 72.9662 45.8682 71.9135 44.9883C70.9693 44.194 69.6469 43.7985 67.9461 43.7985H56.4748L56.3958 44.0951C56.9255 44.0951 57.3762 44.3522 57.7512 44.8663C58.2183 45.4629 58.3335 46.2077 58.0933 47.1042L54.9286 58.933C54.6457 59.9942 54.0897 60.838 53.2607 61.4675C52.514 62.0311 51.731 62.3112 50.9053 62.3112H50.8658L50.777 62.6408H62.6299L62.6397 62.6078H62.643L62.722 62.3112C62.166 62.3112 61.6594 62.0541 61.2087 61.54C60.6297 60.894 60.485 60.0206 60.7778 58.9264L62.0213 54.2726C62.0706 54.0914 62.1463 53.9562 62.2516 53.8607C62.3042 53.8409 63.9984 53.1685 63.8833 55.6009C63.7977 57.4169 63.7944 58.8572 63.9096 59.6745C64.0478 62.0047 65.7189 62.5254 66.7815 62.6177H67.5941C67.627 62.6177 67.65 62.6111 67.65 62.6111H73.6176V62.5946H87.0199C87.3818 62.5122 87.5956 62.3804 87.6614 62.1991L90.711 54.1309C90.7801 53.9332 90.7735 53.8343 90.6913 53.8343C90.5926 53.8343 90.4511 53.9595 90.2702 54.2067C89.0629 55.9436 87.6516 57.5487 86.033 59.0219C83.9375 60.9237 82.1906 61.8762 80.7859 61.8762C80.3056 61.8762 79.9865 61.6949 79.8286 61.329C79.6707 60.9665 79.6575 60.5281 79.7957 60.014L81.6676 53.0136H82.2367C83.3749 53.0136 84.1908 53.5772 84.6842 54.7011C85.0691 55.6108 85.1612 56.438 84.9606 57.1829H85.3553L87.6976 48.4225L87.4081 48.3962C87.2173 49.1081 86.6778 49.8925 85.7863 50.7527C84.6941 51.8106 83.569 52.3413 82.4143 52.3413H81.8452L83.4243 46.4351C83.6019 45.7727 83.921 45.2519 84.3882 44.8729C84.7895 44.5433 85.2468 44.3752 85.76 44.3752C86.9147 44.3752 88.951 45.219 89.9741 47.0218C90.0004 47.0679 90.1452 47.4568 90.3755 48.0798C91.6519 51.5865 95.5272 62.5485 95.5272 62.5485H98.8235L103.475 49.7079C103.534 49.553 103.594 49.408 103.65 49.2597H103.643C103.643 49.2597 103.676 49.1773 103.738 49.0323C104.113 48.0962 104.469 47.3085 104.906 46.6131C105.041 46.3692 105.189 46.1319 105.337 45.9012C106.008 44.9421 106.864 44.0522 107.558 44.128V44.0918C107.897 44.2071 108.212 44.4214 108.502 44.7542C108.999 45.3508 109.245 46.1517 109.245 47.1602V59.3219C109.245 60.2645 108.956 61.0258 108.377 61.6059C107.929 62.0376 107.469 62.2519 106.989 62.2519V62.5485H117.246V62.2519C116.868 62.2519 116.447 62.0376 115.983 61.6059C115.354 61.0258 115.042 60.2645 115.042 59.3186V47.1404C115.042 46.1451 115.315 45.3442 115.858 44.7312C116.318 44.217 116.808 43.96 117.318 43.96V43.6633H107.554V43.6106L107.558 43.6139ZM63.3503 52.9774H62.3667L64.153 46.3C64.482 45.0739 65.0873 44.4642 65.9722 44.4642C66.6762 44.4642 67.1335 44.8333 67.3375 45.5683C67.5414 46.3033 67.4691 47.325 67.1204 48.6335C66.7716 49.9419 66.2552 50.99 65.5775 51.7843C64.8965 52.5786 64.1563 52.9774 63.3503 52.9774Z" fill="#FFFEFA"/>
<path d="M158.249 43.6139V44.0061C158.374 44.0127 159.71 44.1149 160.447 45.3838C161.397 47.0251 160.713 49.9683 160.608 50.4561L158.351 57.8289L155.249 47.3184C155.167 47.0548 155.124 46.7812 155.124 46.4978C155.124 45.8353 155.338 45.2486 155.769 44.7345C156.164 44.2862 156.568 44.0621 156.983 44.0621V43.9336V43.6139H118.605V44.0325C118.684 44.0325 118.749 44.0325 118.769 44.0358C119.286 44.0885 119.786 44.3522 120.276 44.8564C120.954 45.5354 121.292 46.4055 121.292 47.4667V58.7253C121.292 58.8539 121.286 58.9824 121.276 59.1076H121.283C121.062 61.3884 119.641 61.9882 118.967 62.1464C118.927 62.1563 118.786 62.1662 118.605 62.1728V62.5452H135.099C135.438 62.4628 135.619 62.331 135.636 62.1497L136.527 54.0815C136.544 53.8837 136.511 53.7849 136.428 53.7849C136.33 53.7849 136.221 53.9101 136.106 54.1573C135.363 55.8942 134.379 57.4993 133.158 58.9725C131.573 60.8742 130.079 61.8267 128.675 61.8267C128.194 61.8267 127.829 61.6454 127.572 61.2796C127.316 60.9171 127.188 60.4754 127.188 59.9646V52.9642H127.757C128.895 52.9642 129.862 53.5278 130.655 54.6517C131.283 55.5613 131.596 56.3886 131.596 57.1334H131.994V48.3731L131.698 48.3467C131.698 49.0586 131.369 49.843 130.708 50.7032C129.898 51.7612 128.915 52.2918 127.76 52.2918H127.191V46.3857C127.191 45.7232 127.372 45.2025 127.737 44.8235C128.049 44.4939 128.464 44.3258 128.977 44.3258C130.132 44.3258 131.464 45.2289 132.968 47.0317C134.27 48.5873 135.149 50.0276 135.593 51.3492C135.675 51.5799 135.767 51.6953 135.866 51.6953C136.014 51.6953 136.08 51.5799 136.063 51.3459L135.747 45.1036L135.764 45.0739C135.764 45.0739 135.609 44.0654 136.448 44.0819C137.33 44.0984 138.077 45.5518 138.547 46.7581L139.008 48.1061C139.05 48.2511 139.077 48.3434 139.077 48.3434L139.07 48.2841L143.936 62.5353H147.577L151.12 53.452L153.996 62.5353H157.614L161.259 50.634L161.796 48.8872C162.342 47.5228 163.052 46.3857 163.937 45.4925C164.904 44.5005 165.76 44.0061 166.506 44.0061V43.9896H166.602V43.6007H158.266L158.249 43.6139ZM148.521 58.1222L145.087 47.3019C144.955 46.8735 144.89 46.4615 144.89 46.0627C144.89 45.4859 145.018 45.008 145.275 44.6257C145.485 44.3719 146.186 43.7292 147.535 44.2533C147.66 44.3291 147.785 44.4247 147.913 44.5532C148.308 44.9487 148.607 45.4793 148.804 46.1385L150.785 52.3874L148.521 58.1189V58.1222Z" fill="#FFFEFA"/>
<path d="M16.623 10.4017C16.1197 10.1281 15.6065 9.92379 15.0801 9.78866C14.5571 9.65024 14.0208 9.58432 13.4747 9.58432V9.43601C13.9945 9.43601 14.5472 9.26462 15.1262 8.95481C15.1953 8.91856 15.2644 8.89219 15.3334 8.84935C15.3334 8.84935 15.34 8.84605 15.34 8.84276C15.5571 8.71422 15.7776 8.56591 16.0013 8.39123C16.146 8.28246 16.2809 8.1737 16.4092 8.05835C17.2941 7.25416 17.7382 6.26541 17.7382 5.09209C17.7382 3.61885 17.1428 2.49496 15.9552 1.71715C15.6953 1.54576 15.419 1.39745 15.1262 1.27221C14.5406 1.01843 13.886 0.847043 13.1688 0.761351C12.8102 0.718506 12.4352 0.69873 12.0404 0.69873H0.148044V0.995356C0.644793 0.995356 1.1547 1.2788 1.68435 1.83909C1.94095 2.10276 2.13175 2.39279 2.27979 2.69931C2.47059 3.1014 2.57916 3.52986 2.57916 4.00116V15.5828C2.57916 16.5122 2.32914 17.3131 1.86199 17.9953C1.78962 18.1041 1.72383 18.2128 1.63829 18.315C1.10865 18.9445 0.56255 19.2609 0.0032959 19.2609V19.5575H12.6885C13.6327 19.5575 14.4814 19.4158 15.2512 19.1489C15.9124 18.9214 16.5145 18.6116 17.0507 18.1898C18.2909 17.1977 18.9094 15.8728 18.9094 14.2183C18.9094 12.5638 18.1495 11.2224 16.6296 10.3951L16.623 10.4017ZM8.3 2.95638C8.3 2.01048 8.59278 1.4337 9.17507 1.21947C9.34613 1.15685 9.54023 1.1206 9.76064 1.1206C9.94157 1.1206 10.1126 1.14367 10.2705 1.18981C11.3825 1.5161 11.9384 2.98275 11.9384 5.58646C11.9384 8.19018 11.2542 9.50852 9.88236 9.50852H8.54344C8.54344 9.50852 8.52699 9.49863 8.51712 9.49533C8.37566 9.47885 8.29671 9.37668 8.29671 9.15916V2.95638H8.3ZM12.0404 17.9492C11.9417 18.0843 11.8365 18.1931 11.7279 18.3018C11.2772 18.7534 10.7574 18.9939 10.1587 18.9939C9.55996 18.9939 9.12572 18.8325 8.79675 18.5095C8.67174 18.3875 8.57963 18.2458 8.50396 18.0942C8.37566 17.8404 8.30329 17.5471 8.30329 17.2043V10.2797C8.30329 10.171 8.3329 10.0919 8.3954 10.0391C8.4579 9.98641 8.55002 9.95675 8.67503 9.95675H9.88894C10.5962 9.95675 11.2048 10.2435 11.7312 10.784C11.7937 10.8499 11.8595 10.9027 11.922 10.9752C12.6161 11.7859 12.9615 12.9461 12.9615 14.449C12.9615 15.9519 12.6556 17.1219 12.0437 17.9492H12.0404Z" fill="#FFFEFA"/>
<path d="M48.6321 0.0131647C45.8622 -0.121965 43.4508 0.728362 41.4013 2.56415C39.3518 4.40323 38.2596 6.69384 38.1247 9.43598C37.9898 12.1781 38.8517 14.5676 40.7137 16.5945C42.5757 18.6248 44.8884 19.7091 47.6616 19.8442C50.4349 19.9794 52.843 19.129 54.8925 17.2933C56.942 15.4542 58.0342 13.1669 58.169 10.4214C58.3039 7.676 57.442 5.28981 55.58 3.25957C53.7213 1.23263 51.4054 0.15159 48.6321 0.0131647ZM51.6521 10.8235C50.8329 13.7206 50.0138 15.8002 49.1914 17.0659C48.1683 18.6841 46.9872 19.3037 45.6516 18.9247C44.1877 18.5094 43.4705 17.3493 43.4936 15.4476C43.4936 14.1227 43.9212 11.9309 44.7864 8.87568C45.6319 5.88306 46.4214 3.7935 47.1517 2.60699C48.1584 0.985438 49.3723 0.372411 50.7869 0.774504C52.0896 1.14364 52.7607 2.29059 52.8035 4.20877C52.8463 5.75123 52.4647 7.95614 51.6554 10.8235H51.6521Z" fill="#FFFEFA"/>
<path d="M40.717 19.1818H40.5953C40.5953 19.1818 40.569 19.1752 40.5262 19.1653C39.3616 19.05 36.8055 18.3282 35.9765 14.3172C35.483 12.5143 34.631 11.5717 34.2527 11.2224C33.3776 10.5566 32.3611 10.3028 31.4959 10.2336C33.223 9.9205 34.9764 8.93834 34.9764 8.93834C36.0818 8.06164 36.6344 6.92128 36.6344 5.51396C36.6344 4.00776 35.9896 2.81796 34.7034 1.93797C33.5487 1.14367 32.1176 0.748169 30.4168 0.748169H18.9455V1.04479C19.4752 1.04479 19.995 1.30187 20.5082 1.81602C21.1365 2.41257 21.449 3.15743 21.449 4.0539V15.8827C21.449 16.9439 21.1201 17.7877 20.4588 18.4172C19.8634 18.9808 19.1528 19.2609 18.3271 19.2609H18.2876V19.5905H30.1405V19.5575H30.1438V19.2609C29.5878 19.2609 29.0121 19.0038 28.4233 18.4897C27.6699 17.8437 27.2949 16.9703 27.2949 15.8761V11.2224C27.2949 11.0411 27.3376 10.906 27.4133 10.8104C27.4594 10.7906 28.9759 10.1182 29.5122 12.5506C29.9102 14.3666 30.2918 15.8069 30.6274 16.6242C31.3906 18.9544 33.2 19.4751 34.2856 19.5674H35.0981C35.131 19.5674 35.1541 19.5608 35.1541 19.5608H41.1216V19.1785C41.1216 19.1785 40.9703 19.1917 40.7203 19.1785L40.717 19.1818ZM30.1866 8.74059C29.7194 9.53488 29.0812 9.93368 28.2785 9.93368H27.2949V3.2563C27.2949 2.03025 27.739 1.42052 28.6239 1.42052C29.3312 1.42052 29.8839 1.78965 30.2852 2.52463C30.6866 3.2596 30.8873 4.28131 30.8873 5.58976C30.8873 6.89821 30.6537 7.94629 30.1866 8.74059Z" fill="#FFFEFA"/>
<path d="M98.692 0.695435L98.613 0.99206C99.3565 0.99206 100.041 1.54576 100.669 2.65316C101.488 4.09345 101.61 5.89627 101.031 8.06164L99.8105 12.6264L94.7443 0.916256C94.6851 0.767943 94.5633 0.692139 94.3824 0.692139H86.3357H84.954H78.9272C78.9272 0.718505 78.9272 1.01184 78.9338 1.01184H79.5194C79.9372 1.02172 80.6412 1.76988 81.0623 2.44223C81.7498 3.53645 81.9472 4.96355 81.6742 6.71364L79.197 14.7983L79.1641 14.6896L79.174 14.8676L76.0718 4.35712C75.9895 4.09345 75.9467 3.81989 75.9467 3.53645C75.9467 2.87399 76.1606 2.28733 76.5915 1.77317C76.9304 1.39415 77.2725 1.18322 77.6212 1.12719H77.8416V0.692139H56.8531V1.12719H56.8795C57.0867 1.12719 58.6164 1.23266 59.3632 3.68806L64.7748 19.5477V19.5938H68.3902L71.9333 10.5105L74.8085 19.5938H78.4272L79.3746 16.499L79.3812 16.5517L81.9406 8.19347L81.9308 8.20007C82.0328 7.8573 82.1446 7.51124 82.2663 7.15858C83.0328 4.95037 84.023 3.04537 85.0659 1.42711C85.0889 1.40074 85.1152 1.37108 85.1383 1.34472C85.2271 1.25902 85.4146 1.10741 85.6975 1.02831C85.9344 0.962398 86.1383 0.975581 86.2535 0.995356C86.8292 0.995356 87.3654 1.41063 87.8523 2.23789C88.4082 3.18379 88.5267 4.25165 88.2076 5.44145L86.3423 12.422C85.737 14.6929 84.7566 16.4726 83.4046 17.7613C82.3782 18.7566 81.4702 19.251 80.6774 19.251L80.5984 19.5477H89.6353L89.7143 19.251C88.8392 19.251 88.0793 18.7632 87.4312 17.7844C86.5463 16.4594 86.4114 14.6533 87.0233 12.366L89.0366 4.83831L94.9844 19.5477H98.5998L101.666 8.08801C102.215 6.03799 103.196 4.27472 104.613 2.80477C105.735 1.63145 106.62 1.04479 107.265 1.04479L107.357 0.69873H98.692V0.695435ZM69.3475 15.1675L65.9131 4.34723C65.7815 3.91877 65.7157 3.50679 65.7157 3.10799C65.7157 2.53122 65.844 2.05332 66.1006 1.671C66.3111 1.41722 67.0118 0.774535 68.3606 1.29857C68.4856 1.37438 68.6106 1.46996 68.7389 1.5985C69.1337 1.994 69.4298 2.52463 69.6305 3.18709L71.6109 9.43271L69.3475 15.1675Z" fill="#FFFEFA"/>
</g>
<defs>
<clipPath id="clip0_575_3454">
<rect width="168" height="62.6441" fill="white"/>
</clipPath>
</defs>
</svg>
