<svg width="168" height="64" viewBox="0 0 168 64" fill="none" xmlns="http://www.w3.org/2000/svg">
<g clip-path="url(#clip0_540_234)">
<path opacity="0.5" d="M31.6209 24.2291C30.4563 23.27 28.9233 22.7888 27.0251 22.7888H16.0012V23.0855C16.5802 23.0855 17.0671 23.4085 17.4619 24.0577C17.8567 24.707 18.0573 25.5112 18.0573 26.4736V38.1705C18.0573 39.1164 17.7448 39.9041 17.1165 40.5336C16.5539 41.0808 15.9289 41.3543 15.2347 41.3543V41.6509H26.581V41.3543C25.8375 41.3543 25.1763 41.0709 24.6006 40.5073C23.9723 39.8778 23.6597 39.0967 23.6597 38.1672V33.2861H26.2356C28.1831 33.2861 29.8115 32.8807 31.1176 32.0699C32.621 31.1273 33.371 29.7859 33.371 28.049C33.371 26.4604 32.7887 25.1849 31.6242 24.2258L31.6209 24.2291ZM26.8771 31.6514C26.4461 32.3303 25.9033 32.6698 25.2421 32.6698H23.6565V25.0003C23.6565 23.9424 24.2091 23.5007 25.3474 23.5007C26.9001 23.5007 27.6962 24.8454 27.6962 27.7062C27.6962 29.4761 27.4232 30.7911 26.8771 31.6514Z" fill="black"/>
<path opacity="0.5" d="M72.2195 32.8906C72.1208 32.8906 72.0122 33.0158 71.8971 33.263C71.1536 34.9999 70.17 36.605 68.9495 38.0782C67.3638 39.9799 65.5545 40.9324 64.1498 40.9324C63.6695 40.9324 63.3043 40.7512 63.0477 40.3853C62.7911 40.0195 62.6628 39.5812 62.6628 39.067V26.322C62.6628 25.3266 62.9918 24.5224 63.653 23.9094C64.1991 23.3788 64.7913 23.1118 65.4361 23.1118V22.8152H54.0635V23.1118C54.6425 23.1118 55.2017 23.392 55.7478 23.9556C56.4255 24.6345 56.7643 25.5046 56.7643 26.5659V37.8245C56.7643 38.9352 56.3827 39.8382 55.6228 40.5336C55.2872 40.8336 54.9583 41.0445 54.6326 41.1796H53.8299V41.6542H70.8773C71.2227 41.5718 71.4069 41.44 71.4234 41.2587L72.3149 33.1905C72.3313 32.9928 72.2984 32.8939 72.2162 32.8939L72.2195 32.8906Z" fill="black"/>
<path opacity="0.5" d="M80.9504 38.421V26.2429C80.9504 25.2475 81.2235 24.4466 81.7663 23.8336C82.2301 23.3195 82.717 23.0624 83.2269 23.0624V22.7658H72.8708L72.8939 23.0888C73.4564 23.0888 73.9598 23.3458 74.4039 23.8567C74.9006 24.4532 75.1473 25.2541 75.1473 26.2627V38.4243C75.1473 39.3669 74.8578 40.1283 74.2789 40.7083C73.8347 41.1401 73.3709 41.3543 72.8906 41.3543V41.6509H83.148V41.3543C82.7697 41.3543 82.3453 41.1401 81.8847 40.7083C81.2564 40.1283 80.9439 39.3669 80.9439 38.421H80.9504Z" fill="black"/>
<path opacity="0.5" d="M111.377 38.421V26.2429C111.377 25.2475 111.65 24.4466 112.193 23.8336C112.657 23.3195 113.144 23.0624 113.654 23.0624V22.7658H103.298L103.321 23.0888C103.883 23.0888 104.386 23.3458 104.831 23.8567C105.327 24.4532 105.574 25.2541 105.574 26.2627V38.4243C105.574 39.3669 105.285 40.1283 104.706 40.7083C104.258 41.1401 103.798 41.3543 103.317 41.3543V41.6509H113.575V41.3543C113.196 41.3543 112.772 41.1401 112.311 40.7083C111.683 40.1283 111.371 39.3669 111.371 38.421H111.377Z" fill="black"/>
<path opacity="0.5" d="M51.583 25.5013C49.7144 23.4876 47.3919 22.4164 44.6219 22.2846C41.852 22.156 39.4472 23.0031 37.4075 24.8356C35.3679 26.668 34.2889 28.9455 34.1704 31.6711C34.052 34.4001 34.9271 36.7698 36.7956 38.7836C38.6642 40.7973 40.9868 41.8685 43.7567 42.0003C46.5267 42.1288 48.9315 41.2785 50.9711 39.4493C53.0107 37.6201 54.0898 35.3394 54.2082 32.6137C54.3299 29.8881 53.4516 27.5151 51.583 25.5013ZM47.6978 33.0224C46.8951 35.903 46.0858 37.9728 45.2733 39.2318C44.26 40.8435 43.0823 41.4598 41.7467 41.0873C40.2828 40.6787 39.559 39.5284 39.5689 37.6366C39.559 36.3216 39.9768 34.1397 40.8256 31.1009C41.6546 28.1248 42.431 26.0451 43.1547 24.8652C44.1548 23.2503 45.3621 22.6405 46.7767 23.036C48.0827 23.4019 48.7604 24.5389 48.8097 26.4472C48.8624 27.9798 48.4906 30.1715 47.6978 33.0224Z" fill="black"/>
<path opacity="0.5" d="M96.1983 23.5238C96.1983 23.5238 96.7839 23.5139 97.1655 23.5172C98.5966 23.5238 102.988 30.2243 102.988 30.2243H103.597L102.324 22.6207L101.955 22.4856C101.86 22.5449 101.531 22.7097 100.965 22.7097C100.561 22.7097 95.945 22.7822 95.945 22.7822L95.9681 22.7921H90.5663L90.5894 22.7822C90.5894 22.7822 85.9739 22.7097 85.5692 22.7097C85.0034 22.7097 84.6744 22.5416 84.579 22.4856L84.2106 22.6207L82.9374 30.2243H83.546C83.546 30.2243 87.9378 23.5238 89.3689 23.5172C89.7505 23.5172 90.336 23.5238 90.336 23.5238L90.3459 23.4941V37.9036C90.3459 39.0967 89.8327 40.0228 88.8096 40.682C88.0826 41.1302 87.3884 41.351 86.7272 41.351V41.6476H99.5605V41.351C99.0505 41.351 98.4354 41.1203 97.7149 40.6556C96.6984 39.9931 96.1918 39.1263 96.1918 38.0486V23.4941L96.1983 23.5172V23.5238Z" fill="black"/>
<path opacity="0.5" d="M167.895 32.8906C167.796 32.8906 167.687 33.0158 167.572 33.263C166.829 34.9999 165.845 36.605 164.625 38.0782C163.039 39.9799 161.546 40.9324 160.141 40.9324C159.661 40.9324 159.295 40.7512 159.039 40.3853C158.782 40.0195 158.654 39.5812 158.654 39.067V26.322C158.654 25.3266 158.983 24.5224 159.644 23.9094C160.19 23.3788 160.782 23.1118 161.427 23.1118V22.8152H150.055V23.1118C150.634 23.1118 151.193 23.392 151.739 23.9556C152.417 24.6345 152.755 25.5046 152.755 26.5659V37.8245C152.755 39.4098 152.144 40.8995 150.91 40.9226C149.321 40.9555 148.304 37.7882 148.304 37.7882L146.834 33.3916L142.419 21.3222C142.386 21.1904 142.014 21.2068 141.899 21.3716C141.485 22.0011 140.909 22.6207 140.166 23.2338C139.373 23.8962 138.587 24.3906 137.81 24.7235C137.547 24.8224 137.471 25.0465 137.586 25.3926L137.932 26.3846L134.441 36.1864C132.813 40.2041 131.218 41.1071 130.5 41.2851V41.6641H138.136V41.3807V41.3279H137.636C137.636 41.3279 137.59 41.3279 137.583 41.3279C135.882 41.1829 134.849 38.6847 135.178 36.8456C135.215 36.6511 135.386 35.936 135.501 35.5536C135.501 35.547 135.501 35.5437 135.501 35.5404L135.849 34.522H140.83L141.896 37.5245C142.06 37.9563 142.143 38.3683 142.143 38.7671C142.143 39.5284 141.896 40.2634 141.37 40.7907C140.958 41.2225 140.59 41.3477 140.31 41.3477V41.6444H166.556C166.901 41.562 167.082 41.4301 167.102 41.2488L167.993 33.1806C168.01 32.9829 167.977 32.884 167.895 32.884V32.8906ZM135.984 33.8101L138.198 27.6667L138.251 27.8051C138.211 27.9238 138.169 28.0424 138.113 28.1644L138.346 28.0655L140.465 33.8101H135.988H135.984Z" fill="black"/>
<path opacity="0.5" d="M130.984 32.7884C130.866 32.7884 130.727 32.9334 130.566 33.2202C129.606 34.9802 128.379 36.661 126.885 38.2694C124.98 40.3326 123.349 41.3642 121.98 41.3642C120.611 41.3642 119.697 40.7149 119.388 39.4098C119.032 37.9563 119.309 35.5372 120.213 32.1523C121.092 28.8697 122.187 26.378 123.506 24.6675C124.743 23.0789 126.069 22.2813 127.487 22.2813C128.905 22.2813 129.885 23.1283 130.632 24.8191C131.204 26.088 131.523 27.5414 131.593 29.1828C131.593 29.4365 131.668 29.5618 131.82 29.5618C132.004 29.5618 132.135 29.4168 132.214 29.13L134.007 22.4329C134.057 22.245 133.997 22.1527 133.83 22.1527C132.984 22.7262 132.366 23.0162 131.977 23.0162C131.81 23.0162 131.234 22.7954 130.254 22.3571C129.273 21.9187 128.076 21.6979 126.658 21.6979C124.194 21.6979 121.72 22.5515 119.236 24.2588C116.407 26.1869 114.598 28.6324 113.805 31.592C112.969 34.7231 113.219 37.2246 114.558 39.1033C115.897 40.9819 118.036 41.9179 120.973 41.9179C122.322 41.9179 123.684 41.7004 125.059 41.2719C126.431 40.8402 127.204 40.6259 127.372 40.6259C127.625 40.6259 127.872 40.7446 128.112 40.9819C128.352 41.2192 128.49 41.3378 128.523 41.3378C128.809 41.3378 128.997 41.1763 129.083 40.8566L131.112 33.2696C131.198 32.9499 131.155 32.7884 130.987 32.7884H130.984Z" fill="black"/>
<path opacity="0.5" d="M107.558 44.2579H100.82V44.5776H100.834C102.373 44.5743 102.913 47.0627 102.995 47.8405V48.8227C102.929 49.5181 102.732 50.3454 102.357 51.3671L99.8631 57.6424L96.5174 47.9592C96.4352 47.6955 96.3924 47.4318 96.3924 47.1649C96.3924 46.4859 96.5832 45.8268 97.0701 45.3489C97.557 44.8677 98.1688 44.5711 98.8136 44.5711H98.8235V44.2612H88.849V44.2744L75.5914 44.3041L75.4796 44.7227C75.5585 44.7227 75.6243 44.7227 75.6408 44.726C76.1408 44.7787 76.5718 45.0424 76.927 45.5499C77.4238 46.2289 77.5291 47.099 77.2429 48.1602L74.2328 59.4188C74.1966 59.5474 74.1571 59.6759 74.1143 59.8011H74.1209C73.5518 61.3601 72.6339 62.1346 71.8839 62.5169C70.8147 62.0126 69.7094 60.8196 69.8772 58.0115C69.8673 56.2087 69.2686 55.2661 68.9823 54.9167C68.2849 54.2509 67.3375 53.9972 66.4887 53.9279C68.3014 53.6148 70.3147 52.6327 70.3147 52.6327C71.6569 51.756 72.5155 50.6156 72.8906 49.2083C73.2919 47.7021 72.9662 46.5123 71.9135 45.6323C70.9693 44.838 69.6469 44.4425 67.9461 44.4425H56.4748L56.3958 44.7391C56.9255 44.7391 57.3762 44.9962 57.7512 45.5104C58.2183 46.1069 58.3335 46.8518 58.0933 47.7482L54.9286 59.577C54.6457 60.6383 54.0897 61.482 53.2607 62.1115C52.514 62.6751 51.731 62.9553 50.9053 62.9553H50.8658L50.777 63.2848H62.6299L62.6397 63.2519H62.643L62.722 62.9553C62.166 62.9553 61.6594 62.6982 61.2087 62.184C60.6297 61.538 60.485 60.6646 60.7778 59.5704L62.0213 54.9167C62.0706 54.7354 62.1463 54.6003 62.2516 54.5047C62.3042 54.4849 63.9984 53.8126 63.8833 56.2449C63.7977 58.0609 63.7944 59.5012 63.9096 60.3186C64.0478 62.6487 65.7189 63.1695 66.7815 63.2618H67.5941C67.627 63.2618 67.65 63.2552 67.65 63.2552H73.6176V63.2387H87.0199C87.3818 63.1563 87.5956 63.0245 87.6614 62.8432L90.711 54.775C90.7801 54.5772 90.7735 54.4784 90.6913 54.4784C90.5926 54.4784 90.4511 54.6036 90.2702 54.8508C89.0629 56.5877 87.6516 58.1928 86.033 59.666C83.9375 61.5677 82.1906 62.5202 80.7859 62.5202C80.3056 62.5202 79.9865 62.3389 79.8286 61.9731C79.6707 61.6106 79.6575 61.1722 79.7957 60.6581L81.6676 53.6577H82.2367C83.3749 53.6577 84.1908 54.2213 84.6842 55.3452C85.0691 56.2548 85.1612 57.0821 84.9606 57.8269H85.3553L87.6976 49.0666L87.4081 49.0402C87.2173 49.7521 86.6778 50.5365 85.7863 51.3967C84.6941 52.4547 83.569 52.9853 82.4143 52.9853H81.8452L83.4243 47.0792C83.6019 46.4167 83.921 45.896 84.3882 45.517C84.7895 45.1874 85.2468 45.0193 85.76 45.0193C86.9147 45.0193 88.951 45.863 89.9741 47.6658C90.0004 47.712 90.1452 48.1009 90.3755 48.7238C91.6519 52.2306 95.5272 63.1926 95.5272 63.1926H98.8235L103.475 50.352C103.534 50.1971 103.594 50.052 103.65 49.9037H103.643C103.643 49.9037 103.676 49.8213 103.738 49.6763C104.113 48.7403 104.469 47.9526 104.906 47.2572C105.041 47.0133 105.189 46.776 105.337 46.5453C106.008 45.5862 106.864 44.6963 107.558 44.7721V44.7358C107.897 44.8512 108.212 45.0654 108.502 45.3983C108.999 45.9949 109.245 46.7957 109.245 47.8043V59.9659C109.245 60.9085 108.956 61.6699 108.377 62.2499C107.929 62.6817 107.469 62.8959 106.989 62.8959V63.1926H117.246V62.8959C116.868 62.8959 116.447 62.6817 115.983 62.2499C115.354 61.6699 115.042 60.9085 115.042 59.9626V47.7845C115.042 46.7892 115.315 45.9883 115.858 45.3752C116.318 44.8611 116.808 44.604 117.318 44.604V44.3074H107.554V44.2547L107.558 44.2579ZM63.3503 53.6214H62.3667L64.153 46.9441C64.482 45.718 65.0873 45.1083 65.9722 45.1083C66.6762 45.1083 67.1335 45.4774 67.3375 46.2124C67.5414 46.9474 67.4691 47.9691 67.1204 49.2775C66.7716 50.586 66.2552 51.634 65.5775 52.4283C64.8965 53.2226 64.1563 53.6214 63.3503 53.6214Z" fill="black"/>
<path opacity="0.5" d="M158.249 44.258V44.6502C158.374 44.6568 159.71 44.7589 160.447 46.0278C161.397 47.6691 160.713 50.6123 160.608 51.1001L158.351 58.4729L155.249 47.9625C155.167 47.6988 155.124 47.4253 155.124 47.1418C155.124 46.4794 155.338 45.8927 155.769 45.3785C156.164 44.9303 156.568 44.7062 156.983 44.7062V44.5776V44.258H118.605V44.6765C118.684 44.6765 118.749 44.6765 118.769 44.6798C119.286 44.7326 119.786 44.9962 120.276 45.5005C120.954 46.1794 121.292 47.0495 121.292 48.1108V59.3694C121.292 59.4979 121.286 59.6265 121.276 59.7517H121.283C121.062 62.0324 119.641 62.6323 118.967 62.7905C118.927 62.8004 118.786 62.8102 118.605 62.8168V63.1893H135.099C135.438 63.1069 135.619 62.975 135.636 62.7938L136.527 54.7255C136.544 54.5278 136.511 54.4289 136.428 54.4289C136.33 54.4289 136.221 54.5542 136.106 54.8014C135.363 56.5383 134.379 58.1433 133.158 59.6166C131.573 61.5183 130.079 62.4708 128.675 62.4708C128.194 62.4708 127.829 62.2895 127.572 61.9237C127.316 61.5611 127.188 61.1195 127.188 60.6086V53.6083H127.757C128.895 53.6083 129.862 54.1718 130.655 55.2957C131.283 56.2054 131.596 57.0326 131.596 57.7775H131.994V49.0171L131.698 48.9908C131.698 49.7027 131.369 50.4871 130.708 51.3473C129.898 52.4053 128.915 52.9359 127.76 52.9359H127.191V47.0298C127.191 46.3673 127.372 45.8465 127.737 45.4675C128.049 45.1379 128.464 44.9699 128.977 44.9699C130.132 44.9699 131.464 45.8729 132.968 47.6757C134.27 49.2314 135.149 50.6717 135.593 51.9933C135.675 52.224 135.767 52.3394 135.866 52.3394C136.014 52.3394 136.08 52.224 136.063 51.99L135.747 45.7477L135.764 45.718C135.764 45.718 135.609 44.7095 136.448 44.726C137.33 44.7424 138.077 46.1959 138.547 47.4022L139.008 48.7502C139.05 48.8952 139.077 48.9875 139.077 48.9875L139.07 48.9282L143.936 63.1794H147.577L151.12 54.096L153.996 63.1794H157.614L161.259 51.2781L161.796 49.5313C162.342 48.1668 163.052 47.0298 163.937 46.1366C164.904 45.1445 165.76 44.6502 166.506 44.6502V44.6337H166.602V44.2448H158.266L158.249 44.258ZM148.521 58.7663L145.087 47.946C144.955 47.5175 144.89 47.1056 144.89 46.7068C144.89 46.13 145.018 45.6521 145.275 45.2698C145.485 45.016 146.186 44.3733 147.535 44.8973C147.66 44.9732 147.785 45.0687 147.913 45.1973C148.308 45.5928 148.607 46.1234 148.804 46.7826L150.785 53.0315L148.521 58.763V58.7663Z" fill="black"/>
<path opacity="0.5" d="M16.623 11.0458C16.1197 10.7722 15.6065 10.5679 15.0801 10.4327C14.5571 10.2943 14.0208 10.2284 13.4747 10.2284V10.0801C13.9945 10.0801 14.5472 9.90869 15.1262 9.59888C15.1953 9.56262 15.2644 9.53626 15.3334 9.49341C15.3334 9.49341 15.34 9.49011 15.34 9.48682C15.5571 9.35828 15.7776 9.20997 16.0013 9.03529C16.146 8.92653 16.2809 8.81776 16.4092 8.70241C17.2941 7.89822 17.7382 6.90947 17.7382 5.73615C17.7382 4.26291 17.1428 3.13903 15.9552 2.36121C15.6953 2.18982 15.419 2.04151 15.1262 1.91627C14.5406 1.66249 13.886 1.49111 13.1688 1.40541C12.8102 1.36257 12.4352 1.34279 12.0404 1.34279H0.148044V1.63942C0.644793 1.63942 1.1547 1.92286 1.68435 2.48315C1.94095 2.74682 2.13175 3.03686 2.27979 3.34337C2.47059 3.74546 2.57916 4.17392 2.57916 4.64523V16.2268C2.57916 17.1562 2.32914 17.9571 1.86199 18.6394C1.78962 18.7481 1.72383 18.8569 1.63829 18.9591C1.10865 19.5886 0.56255 19.905 0.0032959 19.905V20.2016H12.6885C13.6327 20.2016 14.4814 20.0599 15.2512 19.7929C15.9124 19.5655 16.5145 19.2557 17.0507 18.8338C18.2909 17.8418 18.9094 16.5168 18.9094 14.8623C18.9094 13.2078 18.1495 11.8664 16.6296 11.0392L16.623 11.0458ZM8.3 3.60044C8.3 2.65454 8.59278 2.07777 9.17507 1.86354C9.34613 1.80091 9.54023 1.76466 9.76064 1.76466C9.94157 1.76466 10.1126 1.78773 10.2705 1.83387C11.3825 2.16016 11.9384 3.62681 11.9384 6.23053C11.9384 8.83424 11.2542 10.1526 9.88236 10.1526H8.54344C8.54344 10.1526 8.52699 10.1427 8.51712 10.1394C8.37566 10.1229 8.29671 10.0207 8.29671 9.80322V3.60044H8.3ZM12.0404 18.5932C11.9417 18.7284 11.8365 18.8371 11.7279 18.9459C11.2772 19.3974 10.7574 19.638 10.1587 19.638C9.55996 19.638 9.12572 19.4765 8.79675 19.1535C8.67174 19.0316 8.57963 18.8899 8.50396 18.7382C8.37566 18.4845 8.30329 18.1911 8.30329 17.8484V10.9238C8.30329 10.815 8.3329 10.7359 8.3954 10.6832C8.4579 10.6305 8.55002 10.6008 8.67503 10.6008H9.88894C10.5962 10.6008 11.2048 10.8876 11.7312 11.4281C11.7937 11.494 11.8595 11.5467 11.922 11.6192C12.6161 12.43 12.9615 13.5901 12.9615 15.093C12.9615 16.596 12.6556 17.766 12.0437 18.5932H12.0404Z" fill="black"/>
<path opacity="0.5" d="M48.6321 0.657257C45.8622 0.522128 43.4508 1.37245 41.4013 3.20824C39.3518 5.04732 38.2596 7.33793 38.1247 10.0801C37.9898 12.8222 38.8517 15.2117 40.7137 17.2386C42.5757 19.2689 44.8884 20.3532 47.6616 20.4883C50.4349 20.6235 52.843 19.7731 54.8925 17.9374C56.942 16.0983 58.0342 13.811 58.169 11.0655C58.3039 8.32009 57.442 5.9339 55.58 3.90366C53.7213 1.87672 51.4054 0.795683 48.6321 0.657257ZM51.6521 11.4676C50.8329 14.3647 50.0138 16.4443 49.1914 17.7099C48.1683 19.3282 46.9872 19.9478 45.6516 19.5688C44.1877 19.1535 43.4705 17.9934 43.4936 16.0917C43.4936 14.7668 43.9212 12.575 44.7864 9.51978C45.6319 6.52715 46.4214 4.43759 47.1517 3.25108C48.1584 1.62953 49.3723 1.0165 50.7869 1.4186C52.0896 1.78773 52.7607 2.93468 52.8035 4.85286C52.8463 6.39532 52.4647 8.60024 51.6554 11.4676H51.6521Z" fill="black"/>
<path opacity="0.5" d="M40.717 19.8259H40.5953C40.5953 19.8259 40.569 19.8193 40.5262 19.8094C39.3616 19.694 36.8055 18.9723 35.9765 14.9612C35.483 13.1584 34.631 12.2158 34.2527 11.8664C33.3776 11.2007 32.3611 10.9469 31.4959 10.8777C33.223 10.5646 34.9764 9.5824 34.9764 9.5824C36.0818 8.7057 36.6344 7.56534 36.6344 6.15802C36.6344 4.65182 35.9896 3.46202 34.7034 2.58203C33.5487 1.78773 32.1176 1.39223 30.4168 1.39223H18.9455V1.68886C19.4752 1.68886 19.995 1.94593 20.5082 2.46008C21.1365 3.05663 21.449 3.80149 21.449 4.69796V16.5267C21.449 17.588 21.1201 18.4317 20.4588 19.0612C19.8634 19.6248 19.1528 19.905 18.3271 19.905H18.2876V20.2346H30.1405V20.2016H30.1438V19.905C29.5878 19.905 29.0121 19.6479 28.4233 19.1337C27.6699 18.4878 27.2949 17.6144 27.2949 16.5201V11.8664C27.2949 11.6851 27.3376 11.55 27.4133 11.4544C27.4594 11.4347 28.9759 10.7623 29.5122 13.1946C29.9102 15.0107 30.2918 16.4509 30.6274 17.2683C31.3906 19.5985 33.2 20.1192 34.2856 20.2115H35.0981C35.131 20.2115 35.1541 20.2049 35.1541 20.2049H41.1216V19.8226C41.1216 19.8226 40.9703 19.8358 40.7203 19.8226L40.717 19.8259ZM30.1866 9.38465C29.7194 10.1789 29.0812 10.5777 28.2785 10.5777H27.2949V3.90037C27.2949 2.67431 27.739 2.06458 28.6239 2.06458C29.3312 2.06458 29.8839 2.43372 30.2852 3.16869C30.6866 3.90366 30.8873 4.92537 30.8873 6.23382C30.8873 7.54227 30.6537 8.59035 30.1866 9.38465Z" fill="black"/>
<path opacity="0.5" d="M98.692 1.3395L98.613 1.63612C99.3565 1.63612 100.041 2.18982 100.669 3.29723C101.488 4.73751 101.61 6.54033 101.031 8.7057L99.8105 13.2704L94.7443 1.56032C94.6851 1.41201 94.5633 1.3362 94.3824 1.3362H86.3357H84.954H78.9272C78.9272 1.36257 78.9272 1.6559 78.9338 1.6559H79.5194C79.9372 1.66578 80.6412 2.41394 81.0623 3.08629C81.7498 4.18051 81.9472 5.60761 81.6742 7.3577L79.197 15.4424L79.1641 15.3336L79.174 15.5116L76.0718 5.00118C75.9895 4.73751 75.9467 4.46395 75.9467 4.18051C75.9467 3.51805 76.1606 2.93139 76.5915 2.41724C76.9304 2.03822 77.2725 1.82728 77.6212 1.77125H77.8416V1.3362H56.8531V1.77125H56.8795C57.0867 1.77125 58.6164 1.87672 59.3632 4.33212L64.7748 20.1917V20.2379H68.3902L71.9333 11.1545L74.8085 20.2379H78.4272L79.3746 17.1431L79.3812 17.1958L81.9406 8.83754L81.9308 8.84413C82.0328 8.50136 82.1446 8.1553 82.2663 7.80264C83.0328 5.59443 84.023 3.68943 85.0659 2.07117C85.0889 2.04481 85.1152 2.01514 85.1383 1.98878C85.2271 1.90309 85.4146 1.75148 85.6975 1.67238C85.9344 1.60646 86.1383 1.61964 86.2535 1.63942C86.8292 1.63942 87.3654 2.05469 87.8523 2.88195C88.4082 3.82786 88.5267 4.89571 88.2076 6.08551L86.3423 13.0661C85.737 15.3369 84.7566 17.1167 83.4046 18.4054C82.3782 19.4007 81.4702 19.8951 80.6774 19.8951L80.5984 20.1917H89.6353L89.7143 19.8951C88.8392 19.8951 88.0793 19.4073 87.4312 18.4284C86.5463 17.1035 86.4114 15.2974 87.0233 13.0101L89.0366 5.48237L94.9844 20.1917H98.5998L101.666 8.73207C102.215 6.68206 103.196 4.91878 104.613 3.44884C105.735 2.27552 106.62 1.68886 107.265 1.68886L107.357 1.34279H98.692V1.3395ZM69.3475 15.8115L65.9131 4.99129C65.7815 4.56283 65.7157 4.15085 65.7157 3.75205C65.7157 3.17528 65.844 2.69738 66.1006 2.31507C66.3111 2.06129 67.0118 1.4186 68.3606 1.94264C68.4856 2.01844 68.6106 2.11402 68.7389 2.24256C69.1337 2.63806 69.4298 3.16869 69.6305 3.83115L71.6109 10.0768L69.3475 15.8115Z" fill="black"/>
</g>
<defs>
<clipPath id="clip0_540_234">
<rect width="168" height="62.6441" fill="white" transform="translate(0 0.644073)"/>
</clipPath>
</defs>
</svg>
